<svg width="176" height="25" viewBox="0 0 176 25" fill="none" xmlns="http://www.w3.org/2000/svg">
<path d="M12.3438 19.3438H6.07812L4.85938 24H0L7.10938 1.25H11.3125L18.4688 24H13.5625L12.3438 19.3438ZM7.07812 15.5156H11.3281L9.20312 7.40625L7.07812 15.5156ZM26 17.4844L24.8125 18.8125V24H20.3906V0H24.8125V12.9688L25.3594 12.1562L28.4219 7.09375H33.6875L28.7812 14.0625L34.1562 24H29.0938L26 17.4844ZM43.7344 24C43.6094 23.7396 43.4844 23.3021 43.3594 22.6875C42.5677 23.7708 41.4948 24.3125 40.1406 24.3125C38.724 24.3125 37.5469 23.8438 36.6094 22.9062C35.6823 21.9688 35.2188 20.7552 35.2188 19.2656C35.2188 17.4948 35.7812 16.125 36.9062 15.1562C38.0417 14.1875 39.6719 13.6927 41.7969 13.6719H43.1406V12.3125C43.1406 11.5521 43.0104 11.0156 42.75 10.7031C42.4896 10.3906 42.1094 10.2344 41.6094 10.2344C40.5052 10.2344 39.9531 10.8802 39.9531 12.1719H35.5312C35.5312 10.6094 36.1146 9.32292 37.2812 8.3125C38.4583 7.29167 39.9427 6.78125 41.7344 6.78125C43.5885 6.78125 45.0208 7.26562 46.0312 8.23438C47.0521 9.19271 47.5625 10.5677 47.5625 12.3594V20.3125C47.5833 21.7708 47.7917 22.9115 48.1875 23.7344V24H43.7344ZM41.125 20.8438C41.6146 20.8438 42.0312 20.7448 42.375 20.5469C42.7188 20.349 42.974 20.1146 43.1406 19.8438V16.3281H42.0781C41.3281 16.3281 40.7344 16.5677 40.2969 17.0469C39.8698 17.526 39.6562 18.1667 39.6562 18.9688C39.6562 20.2188 40.1458 20.8438 41.125 20.8438ZM50.1719 15.0312C50.1719 12.2604 50.6406 10.1927 51.5781 8.82812C52.5156 7.46354 53.8802 6.78125 55.6719 6.78125C56.974 6.78125 58.0573 7.34375 58.9219 8.46875V0H63.375V24H59.3594L59.1562 22.2812C58.25 23.6354 57.0833 24.3125 55.6562 24.3125C53.8854 24.3125 52.5312 23.6354 51.5938 22.2812C50.6667 20.9271 50.1927 18.9375 50.1719 16.3125V15.0312ZM54.6094 16.1406C54.6094 17.8073 54.7865 18.974 55.1406 19.6406C55.4948 20.2969 56.0938 20.625 56.9375 20.625C57.8125 20.625 58.474 20.2344 58.9219 19.4531V11.7344C58.4844 10.901 57.8281 10.4844 56.9531 10.4844C56.1406 10.4844 55.5469 10.8125 55.1719 11.4688C54.7969 12.125 54.6094 13.2917 54.6094 14.9688V16.1406ZM73.4688 24.3125C71.1979 24.3125 69.4271 23.6354 68.1562 22.2812C66.8854 20.9271 66.25 18.9896 66.25 16.4688V15.125C66.25 12.4583 66.8333 10.401 68 8.95312C69.1667 7.50521 70.8385 6.78125 73.0156 6.78125C75.1406 6.78125 76.7396 7.46354 77.8125 8.82812C78.8854 10.1823 79.4323 12.1927 79.4531 14.8594V17.0312H70.6562C70.7188 18.2812 70.9948 19.1979 71.4844 19.7812C71.974 20.3542 72.7292 20.6406 73.75 20.6406C75.2292 20.6406 76.4635 20.1354 77.4531 19.125L79.1875 21.7969C78.6458 22.5469 77.8594 23.1562 76.8281 23.625C75.7969 24.0833 74.6771 24.3125 73.4688 24.3125ZM70.6875 13.9375H75.1094V13.5312C75.0885 12.5208 74.9219 11.7552 74.6094 11.2344C74.2969 10.7135 73.7552 10.4531 72.9844 10.4531C72.2135 10.4531 71.651 10.7292 71.2969 11.2812C70.9531 11.8333 70.75 12.7188 70.6875 13.9375ZM86.1094 7.09375L86.2344 8.65625C87.224 7.40625 88.5312 6.78125 90.1562 6.78125C91.8438 6.78125 93.0365 7.54167 93.7344 9.0625C94.7031 7.54167 96.0833 6.78125 97.875 6.78125C100.833 6.78125 102.349 8.82812 102.422 12.9219V24H98V13.2031C98 12.224 97.8646 11.526 97.5938 11.1094C97.3229 10.6927 96.8646 10.4844 96.2188 10.4844C95.3958 10.4844 94.7812 10.9896 94.375 12L94.4062 12.5312V24H89.9844V13.2344C89.9844 12.2656 89.8542 11.5677 89.5938 11.1406C89.3333 10.7031 88.8698 10.4844 88.2031 10.4844C87.4427 10.4844 86.8385 10.8958 86.3906 11.7188V24H81.9688V7.09375H86.1094Z" fill="#252420"/>
<path d="M109.75 7.09375L109.875 8.76562C110.875 7.44271 112.182 6.78125 113.797 6.78125C116.703 6.78125 118.198 8.81771 118.281 12.8906V24H113.844V13.2188C113.844 12.2604 113.698 11.5677 113.406 11.1406C113.125 10.7031 112.625 10.4844 111.906 10.4844C111.104 10.4844 110.479 10.8958 110.031 11.7188V24H105.594V7.09375H109.75ZM129.484 24C129.359 23.7396 129.234 23.3021 129.109 22.6875C128.318 23.7708 127.245 24.3125 125.891 24.3125C124.474 24.3125 123.297 23.8438 122.359 22.9062C121.432 21.9688 120.969 20.7552 120.969 19.2656C120.969 17.4948 121.531 16.125 122.656 15.1562C123.792 14.1875 125.422 13.6927 127.547 13.6719H128.891V12.3125C128.891 11.5521 128.76 11.0156 128.5 10.7031C128.24 10.3906 127.859 10.2344 127.359 10.2344C126.255 10.2344 125.703 10.8802 125.703 12.1719H121.281C121.281 10.6094 121.865 9.32292 123.031 8.3125C124.208 7.29167 125.693 6.78125 127.484 6.78125C129.339 6.78125 130.771 7.26562 131.781 8.23438C132.802 9.19271 133.312 10.5677 133.312 12.3594V20.3125C133.333 21.7708 133.542 22.9115 133.938 23.7344V24H129.484ZM126.875 20.8438C127.365 20.8438 127.781 20.7448 128.125 20.5469C128.469 20.349 128.724 20.1146 128.891 19.8438V16.3281H127.828C127.078 16.3281 126.484 16.5677 126.047 17.0469C125.62 17.526 125.406 18.1667 125.406 18.9688C125.406 20.2188 125.896 20.8438 126.875 20.8438ZM144 19.4688C144 19.0938 143.818 18.75 143.453 18.4375C143.099 18.1146 142.302 17.6823 141.062 17.1406C139.24 16.401 137.984 15.6354 137.297 14.8438C136.62 14.0521 136.281 13.0677 136.281 11.8906C136.281 10.4115 136.812 9.19271 137.875 8.23438C138.948 7.26562 140.365 6.78125 142.125 6.78125C143.979 6.78125 145.464 7.26042 146.578 8.21875C147.693 9.17708 148.25 10.4635 148.25 12.0781H143.828C143.828 10.7031 143.255 10.0156 142.109 10.0156C141.641 10.0156 141.255 10.1615 140.953 10.4531C140.651 10.7448 140.5 11.151 140.5 11.6719C140.5 12.0469 140.667 12.3802 141 12.6719C141.333 12.9531 142.12 13.3594 143.359 13.8906C145.161 14.5573 146.432 15.3021 147.172 16.125C147.922 16.9375 148.297 17.9948 148.297 19.2969C148.297 20.8073 147.729 22.0208 146.594 22.9375C145.458 23.8542 143.969 24.3125 142.125 24.3125C140.885 24.3125 139.792 24.0729 138.844 23.5938C137.896 23.1042 137.151 22.4271 136.609 21.5625C136.078 20.6979 135.812 19.7656 135.812 18.7656H140.016C140.036 19.5365 140.214 20.1146 140.547 20.5C140.891 20.8854 141.448 21.0781 142.219 21.0781C143.406 21.0781 144 20.5417 144 19.4688ZM155.359 8.57812C156.318 7.38021 157.495 6.78125 158.891 6.78125C160.432 6.78125 161.604 7.32292 162.406 8.40625C163.208 9.48958 163.615 11.1042 163.625 13.25V24H159.188V13.2969C159.188 12.3073 159.031 11.5938 158.719 11.1562C158.417 10.7083 157.922 10.4844 157.234 10.4844C156.432 10.4844 155.807 10.8542 155.359 11.5938V24H150.938V0H155.359V8.57812ZM175.141 11.3594L173.672 11.2344C172.464 11.2344 171.646 11.7656 171.219 12.8281V24H166.781V7.09375H170.953L171.078 8.92188C171.776 7.49479 172.74 6.78125 173.969 6.78125C174.469 6.78125 174.875 6.84896 175.188 6.98438L175.141 11.3594Z" fill="#FF7500"/>
</svg>
